<svg width="1134" height="876" viewBox="0 0 1134 876" fill="none" xmlns="http://www.w3.org/2000/svg">
<g filter="url(#filter0_f_2328_46)">
<path d="M641.298 -93.4776C922.382 -120.083 1117.01 69.8415 1076.06 330.757C1035.11 591.672 774.06 824.728 492.976 851.333C211.892 877.939 17.2646 688.014 58.2152 427.099C99.1658 166.184 360.213 -66.8721 641.298 -93.4776Z" fill="#A1FEA0"/>
</g>
<g style="mix-blend-mode:plus-lighter" filter="url(#filter1_f_2328_46)">
<path d="M633.936 -89.0757C909.625 -118.007 1102.78 68.2372 1065.41 326.937C1028.04 585.637 774.271 818.782 498.582 847.713C222.892 876.644 29.7357 690.4 67.1055 431.7C104.475 173.001 358.247 -60.1446 633.936 -89.0757Z" fill="#F6FFF5"/>
</g>
<path d="M673.484 -116.695C939.87 -116.695 1105.8 106.562 1044.13 381.996C982.473 657.43 716.552 880.687 450.165 880.687C183.778 880.687 17.852 657.43 79.514 381.996C141.176 106.562 407.097 -116.695 673.484 -116.695Z" fill="black"/>
<defs>
<filter id="filter0_f_2328_46" x="35.196" y="-113.542" width="1063.88" height="984.94" filterUnits="userSpaceOnUse" color-interpolation-filters="sRGB">
<feFlood flood-opacity="0" result="BackgroundImageFix"/>
<feBlend mode="normal" in="SourceGraphic" in2="BackgroundImageFix" result="shape"/>
<feGaussianBlur stdDeviation="8.78906" result="effect1_foregroundBlur_2328_46"/>
</filter>
<filter id="filter1_f_2328_46" x="44.9019" y="-109.616" width="1042.71" height="977.87" filterUnits="userSpaceOnUse" color-interpolation-filters="sRGB">
<feFlood flood-opacity="0" result="BackgroundImageFix"/>
<feBlend mode="normal" in="SourceGraphic" in2="BackgroundImageFix" result="shape"/>
<feGaussianBlur stdDeviation="8.78906" result="effect1_foregroundBlur_2328_46"/>
</filter>
</defs>
</svg>
